Format : AVI
Format/Info : Audio Video Interleave
File size : 1 016 MiB
Duration : 1h 35mn
Overall bit rate : 1 480 Kbps
Writing library : VirtualDub build 32839/release

Video
ID : 0
Format : MPEG-4 Visual
Format profile : Advanced Simple@L5
Format settings, BVOP : 2
Format settings, QPel : No
Format settings, GMC : No warppoints
Format settings, Matrix : Default (H.263)
Muxing mode : Packed bitstream
Codec ID : XVID
Codec ID/Hint : XviD
Duration : 1h 35mn
Bit rate : 1 247 Kbps
Width : 720 pixels
Height : 304 pixels
Display aspect ratio : 2.35:1
Frame rate : 23.976 fps
Color space : YUV
Chroma subsampling : 4:2:0
Bit depth : 8 bits
Scan type : Progressive
Compression mode : Lossy
Bits/(Pixel*Frame) : 0.238
Stream size : 856 MiB (84%)
Writing library : XviD 63

Audio
ID : 1
Format : MPEG Audio
Format version : Version 1
Format profile : Layer 3
Mode : Joint stereo
Mode extension : MS Stereo
Codec ID : 55
Codec ID/Hint : MP3
Duration : 1h 35mn
Bit rate mode : Constant
Bit rate : 224 Kbps
Channel(s) : 2 channels
Sampling rate : 44.1 KHz
Compression mode : Lossy
Stream size : 154 MiB (15%)
Alignment : Split accross interleaves
Interleave, duration : 42 ms (1.00 video frame)
Interleave, preload duration : 500 ms
Writing library : LAME3.98.2



 
http://www.imdb.com/title/tt1552221/








MOVIEmeter
SEE RANK
Up 9,199 this week
View rank on IMDbPro »
Ecstasy (2011)
Drama | Thriller - 2011 (USA)
Not yet released
(voting begins after release)

A single church-going mother desperately tries to save her two daughters from walking down the same dark path she was once on; and a young woman fights against addiction to a mysterious party drug.
Director:
Lux
Writers:
Lux, Ryan M. Andrews (additional writing), and 1 more credit »
Stars:
Charlie Bewley, Christy Andersen and Elisa King
















Source Used


Ecstasy (2011) HDRip x264-BBnRG ETC ........... Thanks



Straight forward conversion to xvid with a few filters thrown in to liven it up

Enjoy !



Greetz to IMAGiNE,Flawl3ss,DiLLoN,BDK,NOiR,TOXiC,THC,Ez,Rx,Boobyblue,TaRiQ786,LKRG,EP1C
